<mxfile host="app.diagrams.net" agent="Mozilla/5.0 (Windows NT 10.0; Win64; x64) AppleWebKit/537.36 (KHTML, like Gecko) Chrome/131.0.0.0 Safari/537.36" version="25.0.3">
  <diagram name="Page-1" id="4b6BJY21hST6GsSkPaJx">
    <mxGraphModel dx="2074" dy="1132" grid="1" gridSize="10" guides="1" tooltips="1" connect="1" arrows="1" fold="1" page="1" pageScale="1" pageWidth="827" pageHeight="1169" math="0" shadow="0">
      <root>
        <mxCell id="0" />
        <mxCell id="1" parent="0" />
        <mxCell id="_1E428SNobDCA7JHLl7G-14" value="" style="rounded=0;whiteSpace=wrap;html=1;" vertex="1" parent="1">
          <mxGeometry x="540" y="460" width="180" height="210" as="geometry" />
        </mxCell>
        <mxCell id="_1E428SNobDCA7JHLl7G-3" value="" style="endArrow=none;html=1;rounded=0;" edge="1" parent="1">
          <mxGeometry width="50" height="50" relative="1" as="geometry">
            <mxPoint x="944.5" y="770" as="sourcePoint" />
            <mxPoint x="944.5" y="400" as="targetPoint" />
          </mxGeometry>
        </mxCell>
        <mxCell id="_1E428SNobDCA7JHLl7G-7" value="Ai swarms" style="text;html=1;align=center;verticalAlign=middle;resizable=0;points=[];autosize=1;strokeColor=none;fillColor=none;" vertex="1" parent="1">
          <mxGeometry x="570" y="360" width="80" height="30" as="geometry" />
        </mxCell>
        <mxCell id="_1E428SNobDCA7JHLl7G-9" value="ceiba-component-swarm" style="text;html=1;align=left;verticalAlign=middle;resizable=0;points=[];autosize=1;strokeColor=none;fillColor=none;" vertex="1" parent="1">
          <mxGeometry x="555" y="510" width="150" height="30" as="geometry" />
        </mxCell>
        <mxCell id="_1E428SNobDCA7JHLl7G-10" value="ceiba-question-swarm" style="text;html=1;align=left;verticalAlign=middle;resizable=0;points=[];autosize=1;strokeColor=none;fillColor=none;" vertex="1" parent="1">
          <mxGeometry x="555" y="480" width="140" height="30" as="geometry" />
        </mxCell>
        <mxCell id="_1E428SNobDCA7JHLl7G-11" value="ceiba-action-swarm" style="text;html=1;align=left;verticalAlign=middle;resizable=0;points=[];autosize=1;strokeColor=none;fillColor=none;" vertex="1" parent="1">
          <mxGeometry x="555" y="540" width="130" height="30" as="geometry" />
        </mxCell>
        <mxCell id="_1E428SNobDCA7JHLl7G-12" value="ceiba-play-swarm" style="text;html=1;align=left;verticalAlign=middle;resizable=0;points=[];autosize=1;strokeColor=none;fillColor=none;" vertex="1" parent="1">
          <mxGeometry x="555" y="570" width="120" height="30" as="geometry" />
        </mxCell>
        <mxCell id="_1E428SNobDCA7JHLl7G-13" value="ceiba-data-swarm" style="text;html=1;align=left;verticalAlign=middle;resizable=0;points=[];autosize=1;strokeColor=none;fillColor=none;" vertex="1" parent="1">
          <mxGeometry x="555" y="600" width="120" height="30" as="geometry" />
        </mxCell>
        <mxCell id="_1E428SNobDCA7JHLl7G-15" value="..." style="text;html=1;align=left;verticalAlign=middle;resizable=0;points=[];autosize=1;strokeColor=none;fillColor=none;" vertex="1" parent="1">
          <mxGeometry x="555" y="630" width="30" height="30" as="geometry" />
        </mxCell>
        <mxCell id="_1E428SNobDCA7JHLl7G-16" value="json input" style="text;html=1;align=center;verticalAlign=middle;whiteSpace=wrap;rounded=0;" vertex="1" parent="1">
          <mxGeometry x="795" y="510" width="60" height="30" as="geometry" />
        </mxCell>
        <mxCell id="_1E428SNobDCA7JHLl7G-18" value="" style="endArrow=classic;html=1;rounded=0;" edge="1" parent="1">
          <mxGeometry width="50" height="50" relative="1" as="geometry">
            <mxPoint x="765" y="540" as="sourcePoint" />
            <mxPoint x="885" y="540" as="targetPoint" />
          </mxGeometry>
        </mxCell>
        <mxCell id="_1E428SNobDCA7JHLl7G-19" value="json input" style="text;html=1;align=center;verticalAlign=middle;whiteSpace=wrap;rounded=0;" vertex="1" parent="1">
          <mxGeometry x="795" y="560" width="60" height="30" as="geometry" />
        </mxCell>
        <mxCell id="_1E428SNobDCA7JHLl7G-20" value="" style="endArrow=classic;html=1;rounded=0;" edge="1" parent="1">
          <mxGeometry width="50" height="50" relative="1" as="geometry">
            <mxPoint x="885" y="554.5" as="sourcePoint" />
            <mxPoint x="765" y="554.5" as="targetPoint" />
          </mxGeometry>
        </mxCell>
        <mxCell id="_1E428SNobDCA7JHLl7G-21" value="engin input" style="text;html=1;align=center;verticalAlign=middle;whiteSpace=wrap;rounded=0;" vertex="1" parent="1">
          <mxGeometry x="1015" y="510" width="70" height="30" as="geometry" />
        </mxCell>
        <mxCell id="_1E428SNobDCA7JHLl7G-22" value="" style="endArrow=classic;html=1;rounded=0;" edge="1" parent="1">
          <mxGeometry width="50" height="50" relative="1" as="geometry">
            <mxPoint x="985" y="540" as="sourcePoint" />
            <mxPoint x="1105" y="540" as="targetPoint" />
          </mxGeometry>
        </mxCell>
        <mxCell id="_1E428SNobDCA7JHLl7G-23" value="engine input" style="text;html=1;align=center;verticalAlign=middle;whiteSpace=wrap;rounded=0;" vertex="1" parent="1">
          <mxGeometry x="1015" y="560" width="70" height="30" as="geometry" />
        </mxCell>
        <mxCell id="_1E428SNobDCA7JHLl7G-24" value="" style="endArrow=classic;html=1;rounded=0;" edge="1" parent="1">
          <mxGeometry width="50" height="50" relative="1" as="geometry">
            <mxPoint x="1105" y="554.5" as="sourcePoint" />
            <mxPoint x="985" y="554.5" as="targetPoint" />
          </mxGeometry>
        </mxCell>
        <mxCell id="_1E428SNobDCA7JHLl7G-25" value="" style="rounded=0;whiteSpace=wrap;html=1;" vertex="1" parent="1">
          <mxGeometry x="1165" y="490" width="180" height="180" as="geometry" />
        </mxCell>
        <mxCell id="_1E428SNobDCA7JHLl7G-26" value="engin-qpilot" style="text;html=1;align=left;verticalAlign=middle;resizable=0;points=[];autosize=1;strokeColor=none;fillColor=none;" vertex="1" parent="1">
          <mxGeometry x="1180" y="563" width="90" height="30" as="geometry" />
        </mxCell>
        <mxCell id="_1E428SNobDCA7JHLl7G-27" value="engine-混元" style="text;html=1;align=left;verticalAlign=middle;resizable=0;points=[];autosize=1;strokeColor=none;fillColor=none;" vertex="1" parent="1">
          <mxGeometry x="1180" y="510" width="90" height="30" as="geometry" />
        </mxCell>
        <mxCell id="_1E428SNobDCA7JHLl7G-28" value="engin-copilot" style="text;html=1;align=left;verticalAlign=middle;resizable=0;points=[];autosize=1;strokeColor=none;fillColor=none;" vertex="1" parent="1">
          <mxGeometry x="1180" y="590" width="90" height="30" as="geometry" />
        </mxCell>
        <mxCell id="_1E428SNobDCA7JHLl7G-31" value="..." style="text;html=1;align=left;verticalAlign=middle;resizable=0;points=[];autosize=1;strokeColor=none;fillColor=none;" vertex="1" parent="1">
          <mxGeometry x="1180" y="620" width="30" height="30" as="geometry" />
        </mxCell>
        <mxCell id="_1E428SNobDCA7JHLl7G-32" value="&lt;span style=&quot;color: rgb(0, 0, 0); font-family: Helvetica; font-size: 12px; font-style: normal; font-variant-ligatures: normal; font-variant-caps: normal; font-weight: 400; letter-spacing: normal; orphans: 2; text-indent: 0px; text-transform: none; widows: 2; word-spacing: 0px; -webkit-text-stroke-width: 0px; white-space: normal; background-color: rgb(251, 251, 251); text-decoration-thickness: initial; text-decoration-style: initial; text-decoration-color: initial; float: none; display: inline !important;&quot;&gt;Ai adapter&lt;/span&gt;" style="text;whiteSpace=wrap;html=1;align=center;" vertex="1" parent="1">
          <mxGeometry x="905" y="360" width="90" height="30" as="geometry" />
        </mxCell>
        <mxCell id="_1E428SNobDCA7JHLl7G-33" value="&lt;span style=&quot;color: rgb(0, 0, 0); font-family: Helvetica; font-size: 12px; font-style: normal; font-variant-ligatures: normal; font-variant-caps: normal; font-weight: 400; letter-spacing: normal; orphans: 2; text-indent: 0px; text-transform: none; widows: 2; word-spacing: 0px; -webkit-text-stroke-width: 0px; white-space: normal; background-color: rgb(251, 251, 251); text-decoration-thickness: initial; text-decoration-style: initial; text-decoration-color: initial; float: none; display: inline !important;&quot;&gt;Ai engines&lt;/span&gt;" style="text;whiteSpace=wrap;html=1;align=center;" vertex="1" parent="1">
          <mxGeometry x="1210" y="360" width="90" height="30" as="geometry" />
        </mxCell>
        <mxCell id="_1E428SNobDCA7JHLl7G-35" value="engin-知己" style="text;html=1;align=left;verticalAlign=middle;resizable=0;points=[];autosize=1;strokeColor=none;fillColor=none;" vertex="1" parent="1">
          <mxGeometry x="1180" y="534" width="80" height="30" as="geometry" />
        </mxCell>
      </root>
    </mxGraphModel>
  </diagram>
</mxfile>
